<?xml version="1.0" encoding="UTF-8"?>
<svg width="40px" height="41px" viewBox="0 0 40 41" version="1.1" xmlns="http://www.w3.org/2000/svg" xmlns:xlink="http://www.w3.org/1999/xlink">
    <!-- Generator: Sketch 63 (92445) - https://sketch.com -->
    <title>ios</title>
    <desc>Created with Sketch.</desc>
    <g id="页面-1" stroke="none" stroke-width="1" fill="none" fill-rule="evenodd">
        <g id="首页" transform="translate(-202.000000, -718.000000)" fill="#333333" fill-rule="nonzero">
            <g id="编组-4" transform="translate(140.000000, 339.000000)">
                <g id="编组" transform="translate(0.000000, 357.000000)">
                    <g id="编组-8" transform="translate(62.000000, 22.000000)">
                        <g id="ios" transform="translate(6.000000, 2.500000)">
                            <path d="M22.5171464,17.5889618 C22.4755354,13.3945749 25.937569,11.3847645 26.0915297,11.2848981 C24.1482969,8.438707 21.1190174,8.04756377 20.0371319,8.00179171 C17.4572511,7.74380363 15.0063643,9.52059253 13.6997795,9.52059253 C12.3931947,9.52059253 10.3750621,8.04340271 8.23625766,8.08085257 C5.42751644,8.12246357 2.83515231,9.71616413 1.38709016,12.2336285 C-1.53400073,17.301846 0.6380925,24.808467 3.48428362,28.9154709 C4.87409039,30.9252813 6.53436852,33.1847575 8.71062285,33.1056967 C10.8078163,33.0224747 11.5984249,31.7491787 14.1325337,31.7491787 C16.6666425,31.7491787 17.3781903,33.1056967 19.6002166,33.0640857 C21.8555318,33.0224747 23.2869496,31.0126643 24.6684341,28.9945317 C26.2662958,26.6601556 26.9237493,24.4006794 26.9611992,24.2883297 C26.911266,24.2633631 22.5587574,22.5989239 22.5171464,17.5889618 L22.5171464,17.5889618 L22.5171464,17.5889618 Z M18.3477261,5.28459462 C19.5045114,3.88230456 20.2826367,1.93907173 20.0704207,0 C18.4059815,0.0665775758 16.3878489,1.10685211 15.1936137,2.50498108 C14.1242115,3.74914941 13.1838033,5.7298321 13.4376303,7.62729287 C15.29348,7.77293127 17.1909408,6.68272358 18.3477261,5.28459462 L18.3477261,5.28459462 L18.3477261,5.28459462 Z" id="形状"></path>
                        </g>
                    </g>
                </g>
            </g>
        </g>
    </g>
</svg>