<?xml version="1.0" encoding="UTF-8"?>
<svg width="84px" height="85px" viewBox="0 0 84 85" version="1.1" xmlns="http://www.w3.org/2000/svg" xmlns:xlink="http://www.w3.org/1999/xlink">
    <!-- Generator: Sketch 63 (92445) - https://sketch.com -->
    <title>二维码</title>
    <desc>Created with Sketch.</desc>
    <g id="页面-1" stroke="none" stroke-width="1" fill="none" fill-rule="evenodd">
        <g id="首页" transform="translate(-748.000000, -696.000000)">
            <g id="编组-4" transform="translate(140.000000, 339.000000)">
                <g id="编组-3" transform="translate(608.000000, 357.000000)">
                    <rect id="矩形" fill="#FFFFFF" x="0" y="0" width="84" height="84" rx="10"></rect>
                    <g id="erweima" transform="translate(7.000000, 7.000000)" fill="#333333" fill-rule="nonzero">
                        <path d="M-0.000251875,33.1298198 L33.0593337,33.1298198 L33.0593337,0.0703142187 L-0.000251875,0.0703142187 L-0.000251875,33.1298198 Z M8.26470453,8.33519062 L24.7944573,8.33519062 L24.7944573,24.8649434 L8.26470453,24.8649434 L8.26470453,8.33519062 Z M37.191812,0.0703142187 L37.191812,33.1298998 L70.2513976,33.1298998 L70.2513976,0.0703142187 L37.191812,0.0703142187 Z M61.9864412,24.8649434 L45.4566884,24.8649434 L45.4566884,8.33519062 L61.9864412,8.33519062 L61.9864412,24.8649434 Z M12.3971027,20.7325452 L20.6619791,20.7325452 L20.6619791,12.4675888 L12.3971027,12.4675888 L12.3971027,20.7325452 Z M-0.000251875,70.3218837 L33.0593337,70.3218837 L33.0593337,37.262298 L-0.000251875,37.262298 L-0.000251875,70.3218837 Z M8.26470453,45.5271745 L24.7944573,45.5271745 L24.7944573,62.0569273 L8.26470453,62.0569273 L8.26470453,45.5271745 Z M57.8540429,12.4675888 L49.5890866,12.4675888 L49.5890866,20.7324652 L57.8540429,20.7324652 L57.8540429,12.4675888 L57.8540429,12.4675888 Z M37.191812,70.3218837 L45.4566884,70.3218837 L45.4566884,62.0570072 L37.191812,62.0570072 L37.191812,70.3218837 Z M45.4566884,45.5271745 L45.4566884,62.0569273 L53.7215648,62.0569273 L53.7215648,45.5271745 L45.4566884,45.5271745 Z M61.9864412,62.0570072 L53.7215648,62.0570072 L53.7215648,70.3218837 L70.2513176,70.3218837 L70.2513176,53.7920509 L61.9864412,53.7920509 L61.9864412,62.0570072 Z M61.9864412,45.5271745 L70.2513176,45.5271745 L70.2513176,37.262298 L61.9864412,37.262298 L61.9864412,45.5271745 Z M37.191812,37.262298 L37.191812,45.5271745 L45.4566884,45.5271745 L45.4566884,37.262298 L37.191812,37.262298 Z M12.3971027,57.9245291 L20.6619791,57.9245291 L20.6619791,49.6596527 L12.3971027,49.6596527 L12.3971027,57.9245291 Z" id="形状"></path>
                    </g>
                </g>
            </g>
        </g>
    </g>
</svg>